<svg width="197" height="56" viewBox="0 0 197 56" fill="none" xmlns="http://www.w3.org/2000/svg">
<path opacity="0.7" d="M58.936 18.24C58.1467 18.24 57.4587 18.1253 56.872 17.896C56.2907 17.6613 55.808 17.3573 55.424 16.984C55.0453 16.6053 54.7573 16.2 54.56 15.768L55.824 14.984C55.952 15.32 56.1493 15.632 56.416 15.92C56.688 16.208 57.0347 16.44 57.456 16.616C57.8827 16.792 58.3947 16.88 58.992 16.88C59.6 16.88 60.1093 16.7867 60.52 16.6C60.9307 16.408 61.2373 16.1493 61.44 15.824C61.648 15.4933 61.752 15.1147 61.752 14.688C61.752 14.2027 61.632 13.8293 61.392 13.568C61.152 13.3013 60.8293 13.1147 60.424 13.008C60.024 12.896 59.5813 12.832 59.096 12.816C58.7173 12.8 58.4453 12.7893 58.28 12.784C58.1147 12.7787 58.0027 12.776 57.944 12.776C57.8907 12.776 57.84 12.776 57.792 12.776V11.416C57.84 11.416 57.9413 11.416 58.096 11.416C58.2507 11.416 58.4133 11.416 58.584 11.416C58.7547 11.4107 58.8907 11.4053 58.992 11.4C59.7067 11.3627 60.2747 11.1813 60.696 10.856C61.1173 10.5253 61.328 10.072 61.328 9.496C61.328 8.89867 61.112 8.432 60.68 8.096C60.2533 7.76 59.696 7.592 59.008 7.592C58.3573 7.592 57.8027 7.744 57.344 8.048C56.8907 8.352 56.528 8.744 56.256 9.224L55.16 8.288C55.5333 7.696 56.0507 7.208 56.712 6.824C57.3787 6.43467 58.1573 6.24 59.048 6.24C59.5387 6.24 60.0107 6.30667 60.464 6.44C60.9227 6.568 61.328 6.76533 61.68 7.032C62.0373 7.29333 62.32 7.62667 62.528 8.032C62.736 8.432 62.84 8.90667 62.84 9.456C62.84 10.048 62.7147 10.5733 62.464 11.032C62.2133 11.4907 61.8853 11.8453 61.48 12.096C62.04 12.2827 62.4773 12.592 62.792 13.024C63.1067 13.456 63.264 14.016 63.264 14.704C63.264 15.424 63.08 16.048 62.712 16.576C62.3493 17.104 61.8427 17.5147 61.192 17.808C60.5413 18.096 59.7893 18.24 58.936 18.24ZM67.4041 18.24C66.7588 18.24 66.2175 18.1227 65.7801 17.888C65.3481 17.648 65.0201 17.3333 64.7961 16.944C64.5775 16.5547 64.4681 16.128 64.4681 15.664C64.4681 15.2107 64.5535 14.8187 64.7241 14.488C64.9001 14.152 65.1455 13.8747 65.4601 13.656C65.7748 13.432 66.1508 13.256 66.5881 13.128C66.9988 13.016 67.4575 12.92 67.9641 12.84C68.4761 12.7547 68.9935 12.6773 69.5161 12.608C70.0388 12.5387 70.5268 12.472 70.9801 12.408L70.4681 12.704C70.4841 11.936 70.3295 11.368 70.0041 11C69.6841 10.632 69.1295 10.448 68.3401 10.448C67.8175 10.448 67.3588 10.568 66.9641 10.808C66.5748 11.0427 66.3001 11.4267 66.1401 11.96L64.7881 11.552C64.9961 10.7947 65.3988 10.2 65.9961 9.768C66.5935 9.336 67.3801 9.12 68.3561 9.12C69.1401 9.12 69.8121 9.26133 70.3721 9.544C70.9375 9.82133 71.3428 10.2427 71.5881 10.808C71.7108 11.0747 71.7881 11.3653 71.8201 11.68C71.8521 11.9893 71.8681 12.3147 71.8681 12.656V18H70.6041V15.928L70.9001 16.12C70.5748 16.8187 70.1188 17.3467 69.5321 17.704C68.9508 18.0613 68.2415 18.24 67.4041 18.24ZM67.6201 17.048C68.1321 17.048 68.5748 16.9573 68.9481 16.776C69.3268 16.5893 69.6308 16.3467 69.8601 16.048C70.0895 15.744 70.2388 15.4133 70.3081 15.056C70.3881 14.7893 70.4308 14.4933 70.4361 14.168C70.4468 13.8373 70.4521 13.584 70.4521 13.408L70.9481 13.624C70.4841 13.688 70.0281 13.7493 69.5801 13.808C69.1321 13.8667 68.7081 13.9307 68.3081 14C67.9081 14.064 67.5481 14.1413 67.2281 14.232C66.9935 14.3067 66.7721 14.4027 66.5641 14.52C66.3615 14.6373 66.1961 14.7893 66.0681 14.976C65.9455 15.1573 65.8841 15.384 65.8841 15.656C65.8841 15.8907 65.9428 16.1147 66.0601 16.328C66.1828 16.5413 66.3695 16.7147 66.6201 16.848C66.8761 16.9813 67.2095 17.048 67.6201 17.048ZM73.3081 19.92V16.824C73.7935 16.824 74.1401 16.6667 74.3481 16.352C74.5561 16.032 74.7241 15.5067 74.8521 14.776C74.9375 14.3173 75.0068 13.8267 75.0601 13.304C75.1135 12.7813 75.1588 12.2 75.1961 11.56C75.2388 10.9147 75.2788 10.1813 75.3161 9.36H81.2681V16.824H82.1081V19.92H80.7481V18H74.6681V19.92H73.3081ZM75.5001 16.824H79.8441V10.536H76.6041C76.5881 10.9147 76.5668 11.312 76.5401 11.728C76.5135 12.1387 76.4815 12.5493 76.4441 12.96C76.4121 13.3707 76.3721 13.76 76.3241 14.128C76.2815 14.4907 76.2308 14.816 76.1721 15.104C76.1028 15.504 76.0228 15.8427 75.9321 16.12C75.8415 16.3973 75.6975 16.632 75.5001 16.824ZM86.1698 18.24C85.5244 18.24 84.9831 18.1227 84.5458 17.888C84.1138 17.648 83.7858 17.3333 83.5618 16.944C83.3431 16.5547 83.2338 16.128 83.2338 15.664C83.2338 15.2107 83.3191 14.8187 83.4898 14.488C83.6658 14.152 83.9111 13.8747 84.2258 13.656C84.5404 13.432 84.9164 13.256 85.3538 13.128C85.7644 13.016 86.2231 12.92 86.7298 12.84C87.2418 12.7547 87.7591 12.6773 88.2818 12.608C88.8044 12.5387 89.2924 12.472 89.7458 12.408L89.2338 12.704C89.2498 11.936 89.0951 11.368 88.7698 11C88.4498 10.632 87.8951 10.448 87.1058 10.448C86.5831 10.448 86.1244 10.568 85.7298 10.808C85.3404 11.0427 85.0658 11.4267 84.9058 11.96L83.5538 11.552C83.7618 10.7947 84.1644 10.2 84.7618 9.768C85.3591 9.336 86.1458 9.12 87.1218 9.12C87.9058 9.12 88.5778 9.26133 89.1378 9.544C89.7031 9.82133 90.1084 10.2427 90.3538 10.808C90.4764 11.0747 90.5538 11.3653 90.5858 11.68C90.6178 11.9893 90.6337 12.3147 90.6337 12.656V18H89.3698V15.928L89.6658 16.12C89.3404 16.8187 88.8844 17.3467 88.2978 17.704C87.7164 18.0613 87.0071 18.24 86.1698 18.24ZM86.3858 17.048C86.8978 17.048 87.3404 16.9573 87.7138 16.776C88.0924 16.5893 88.3964 16.3467 88.6258 16.048C88.8551 15.744 89.0044 15.4133 89.0738 15.056C89.1538 14.7893 89.1964 14.4933 89.2018 14.168C89.2124 13.8373 89.2178 13.584 89.2178 13.408L89.7138 13.624C89.2498 13.688 88.7938 13.7493 88.3458 13.808C87.8978 13.8667 87.4738 13.9307 87.0738 14C86.6738 14.064 86.3138 14.1413 85.9938 14.232C85.7591 14.3067 85.5378 14.4027 85.3298 14.52C85.1271 14.6373 84.9618 14.7893 84.8338 14.976C84.7111 15.1573 84.6497 15.384 84.6497 15.656C84.6497 15.8907 84.7084 16.1147 84.8258 16.328C84.9484 16.5413 85.1351 16.7147 85.3858 16.848C85.6418 16.9813 85.9751 17.048 86.3858 17.048ZM96.4338 8.352C96.0338 8.352 95.6684 8.25333 95.3378 8.056C95.0071 7.85867 94.7431 7.59733 94.5458 7.272C94.3484 6.94133 94.2498 6.57333 94.2498 6.168H95.4018C95.4018 6.45067 95.5031 6.69333 95.7057 6.896C95.9084 7.09867 96.1511 7.2 96.4338 7.2C96.7218 7.2 96.9644 7.09867 97.1618 6.896C97.3644 6.69333 97.4658 6.45067 97.4658 6.168H98.6178C98.6178 6.57333 98.5191 6.94133 98.3218 7.272C98.1298 7.59733 97.8658 7.85867 97.5298 8.056C97.1991 8.25333 96.8338 8.352 96.4338 8.352ZM99.7858 9.36V18H98.4098V11.632L93.8818 18H92.7058V9.36H94.0818V15.64L98.6178 9.36H99.7858ZM104.314 18V10.656H101.306V9.36H108.746V10.656H105.738V18H104.314ZM114.005 18.24C113.157 18.24 112.415 18.0533 111.781 17.68C111.151 17.3013 110.661 16.776 110.309 16.104C109.957 15.4267 109.781 14.6373 109.781 13.736C109.781 12.792 109.954 11.976 110.301 11.288C110.647 10.5947 111.13 10.0613 111.749 9.688C112.373 9.30933 113.103 9.12 113.941 9.12C114.81 9.12 115.549 9.32 116.157 9.72C116.77 10.12 117.229 10.6907 117.533 11.432C117.842 12.1733 117.975 13.056 117.933 14.08H116.493V13.568C116.477 12.5067 116.261 11.7147 115.845 11.192C115.429 10.664 114.81 10.4 113.989 10.4C113.109 10.4 112.439 10.6827 111.981 11.248C111.522 11.8133 111.293 12.624 111.293 13.68C111.293 14.6987 111.522 15.488 111.981 16.048C112.439 16.608 113.093 16.888 113.941 16.888C114.511 16.888 115.007 16.7573 115.429 16.496C115.85 16.2347 116.181 15.8587 116.421 15.368L117.789 15.84C117.453 16.6027 116.946 17.1947 116.269 17.616C115.597 18.032 114.842 18.24 114.005 18.24ZM110.813 14.08V12.936H117.197V14.08H110.813ZM122.909 18V9.36H126.589C126.808 9.36 127.042 9.37333 127.293 9.4C127.549 9.42133 127.781 9.46133 127.989 9.52C128.453 9.64267 128.834 9.896 129.133 10.28C129.437 10.6587 129.589 11.1387 129.589 11.72C129.589 12.0453 129.538 12.328 129.437 12.568C129.341 12.808 129.202 13.016 129.021 13.192C128.941 13.272 128.853 13.344 128.757 13.408C128.661 13.472 128.565 13.5227 128.469 13.56C128.656 13.592 128.845 13.664 129.037 13.776C129.341 13.9413 129.578 14.1733 129.749 14.472C129.925 14.7707 130.013 15.152 130.013 15.616C130.013 16.2027 129.872 16.688 129.589 17.072C129.306 17.4507 128.917 17.712 128.421 17.856C128.213 17.9147 127.984 17.9547 127.733 17.976C127.482 17.992 127.24 18 127.005 18H122.909ZM124.349 16.84H126.925C127.037 16.84 127.17 16.8293 127.325 16.808C127.485 16.7867 127.626 16.76 127.749 16.728C128.026 16.648 128.226 16.4987 128.349 16.28C128.477 16.0613 128.541 15.824 128.541 15.568C128.541 15.2267 128.445 14.9493 128.253 14.736C128.066 14.5227 127.818 14.3893 127.509 14.336C127.397 14.304 127.274 14.2853 127.141 14.28C127.013 14.2747 126.898 14.272 126.797 14.272H124.349V16.84ZM124.349 13.096H126.493C126.642 13.096 126.8 13.088 126.965 13.072C127.13 13.0507 127.274 13.016 127.397 12.968C127.642 12.8773 127.821 12.728 127.933 12.52C128.05 12.3067 128.109 12.0747 128.109 11.824C128.109 11.5467 128.045 11.304 127.917 11.096C127.794 10.8827 127.605 10.736 127.349 10.656C127.178 10.592 126.986 10.5573 126.773 10.552C126.565 10.5413 126.432 10.536 126.373 10.536H124.349V13.096ZM135.3 18.24C134.441 18.24 133.7 18.0453 133.076 17.656C132.457 17.2667 131.98 16.728 131.644 16.04C131.308 15.352 131.14 14.5627 131.14 13.672C131.14 12.7653 131.311 11.9707 131.652 11.288C131.993 10.6053 132.476 10.0747 133.1 9.696C133.724 9.312 134.457 9.12 135.3 9.12C136.164 9.12 136.908 9.31467 137.532 9.704C138.156 10.088 138.633 10.624 138.964 11.312C139.3 11.9947 139.468 12.7813 139.468 13.672C139.468 14.5733 139.3 15.368 138.964 16.056C138.628 16.7387 138.148 17.2747 137.524 17.664C136.9 18.048 136.159 18.24 135.3 18.24ZM135.3 16.888C136.196 16.888 136.863 16.5893 137.3 15.992C137.737 15.3947 137.956 14.6213 137.956 13.672C137.956 12.696 137.735 11.92 137.292 11.344C136.849 10.7627 136.185 10.472 135.3 10.472C134.697 10.472 134.201 10.608 133.812 10.88C133.423 11.152 133.132 11.528 132.94 12.008C132.748 12.488 132.652 13.0427 132.652 13.672C132.652 14.6427 132.876 15.4213 133.324 16.008C133.772 16.5947 134.431 16.888 135.3 16.888ZM141.221 18V9.36H148.301V18H146.877V10.712H142.645V18H141.221ZM154.51 18.24C153.699 18.24 153.017 18.04 152.462 17.64C151.907 17.2347 151.486 16.688 151.198 16C150.915 15.3067 150.774 14.5307 150.774 13.672C150.774 12.8027 150.915 12.024 151.198 11.336C151.486 10.648 151.907 10.1067 152.462 9.712C153.022 9.31733 153.707 9.12 154.518 9.12C155.318 9.12 156.006 9.32 156.582 9.72C157.163 10.1147 157.609 10.656 157.918 11.344C158.227 12.032 158.382 12.808 158.382 13.672C158.382 14.536 158.227 15.312 157.918 16C157.609 16.688 157.163 17.2347 156.582 17.64C156.006 18.04 155.315 18.24 154.51 18.24ZM150.534 21.84V9.36H151.806V15.72H151.966V21.84H150.534ZM154.334 16.936C154.905 16.936 155.377 16.792 155.75 16.504C156.123 16.216 156.403 15.8267 156.59 15.336C156.777 14.84 156.87 14.2853 156.87 13.672C156.87 13.064 156.777 12.5147 156.59 12.024C156.409 11.5333 156.126 11.144 155.742 10.856C155.363 10.568 154.881 10.424 154.294 10.424C153.734 10.424 153.27 10.5627 152.902 10.84C152.534 11.112 152.259 11.4933 152.078 11.984C151.897 12.4693 151.806 13.032 151.806 13.672C151.806 14.3013 151.894 14.864 152.07 15.36C152.251 15.8507 152.529 16.2373 152.902 16.52C153.275 16.7973 153.753 16.936 154.334 16.936ZM163.816 18.24C162.957 18.24 162.216 18.0453 161.592 17.656C160.973 17.2667 160.496 16.728 160.16 16.04C159.824 15.352 159.656 14.5627 159.656 13.672C159.656 12.7653 159.826 11.9707 160.168 11.288C160.509 10.6053 160.992 10.0747 161.616 9.696C162.24 9.312 162.973 9.12 163.816 9.12C164.68 9.12 165.424 9.31467 166.048 9.704C166.672 10.088 167.149 10.624 167.48 11.312C167.816 11.9947 167.984 12.7813 167.984 13.672C167.984 14.5733 167.816 15.368 167.48 16.056C167.144 16.7387 166.664 17.2747 166.04 17.664C165.416 18.048 164.674 18.24 163.816 18.24ZM163.816 16.888C164.712 16.888 165.378 16.5893 165.816 15.992C166.253 15.3947 166.472 14.6213 166.472 13.672C166.472 12.696 166.25 11.92 165.808 11.344C165.365 10.7627 164.701 10.472 163.816 10.472C163.213 10.472 162.717 10.608 162.328 10.88C161.938 11.152 161.648 11.528 161.456 12.008C161.264 12.488 161.168 13.0427 161.168 13.672C161.168 14.6427 161.392 15.4213 161.84 16.008C162.288 16.5947 162.946 16.888 163.816 16.888ZM173.385 18.24C172.51 18.24 171.766 18.0453 171.153 17.656C170.545 17.2613 170.081 16.72 169.761 16.032C169.441 15.344 169.276 14.56 169.265 13.68C169.276 12.7787 169.444 11.9867 169.769 11.304C170.1 10.616 170.572 10.08 171.185 9.696C171.798 9.312 172.537 9.12 173.401 9.12C174.313 9.12 175.097 9.344 175.753 9.792C176.414 10.24 176.857 10.8533 177.081 11.632L175.673 12.056C175.492 11.5547 175.196 11.1653 174.785 10.888C174.38 10.6107 173.913 10.472 173.385 10.472C172.793 10.472 172.305 10.6107 171.921 10.888C171.537 11.16 171.252 11.5387 171.065 12.024C170.878 12.504 170.782 13.056 170.777 13.68C170.788 14.64 171.009 15.416 171.441 16.008C171.878 16.5947 172.526 16.888 173.385 16.888C173.95 16.888 174.42 16.76 174.793 16.504C175.166 16.2427 175.449 15.8667 175.641 15.376L177.081 15.752C176.782 16.5573 176.316 17.1733 175.681 17.6C175.046 18.0267 174.281 18.24 173.385 18.24Z" fill="#1E1B1B"/>
<path d="M58.41 44.597V41.267H55.08V39.755H58.41V36.443H59.922V39.755H63.243V41.267H59.922V44.597H58.41ZM69.7274 47.27C68.8814 47.27 68.1314 47.102 67.4774 46.766C66.8294 46.424 66.3194 45.95 65.9474 45.344C65.5814 44.738 65.3984 44.036 65.3984 43.238C65.3984 42.494 65.5724 41.813 65.9204 41.195C66.2684 40.577 66.7874 40.091 67.4774 39.737L67.4414 40.385C66.8894 40.043 66.4634 39.617 66.1634 39.107C65.8694 38.591 65.7224 38.015 65.7224 37.379C65.7224 36.641 65.8934 36.002 66.2354 35.462C66.5774 34.922 67.0484 34.505 67.6484 34.211C68.2544 33.917 68.9474 33.77 69.7274 33.77C70.5074 33.77 71.1974 33.917 71.7974 34.211C72.3974 34.505 72.8684 34.922 73.2104 35.462C73.5524 36.002 73.7234 36.641 73.7234 37.379C73.7234 38.015 73.5824 38.588 73.3004 39.098C73.0184 39.608 72.5864 40.037 72.0044 40.385L71.9774 39.755C72.6614 40.091 73.1804 40.571 73.5344 41.195C73.8884 41.813 74.0654 42.494 74.0654 43.238C74.0654 44.036 73.8794 44.738 73.5074 45.344C73.1354 45.95 72.6224 46.424 71.9684 46.766C71.3144 47.102 70.5674 47.27 69.7274 47.27ZM69.7274 45.479C70.4234 45.479 70.9874 45.29 71.4194 44.912C71.8514 44.528 72.0674 43.97 72.0674 43.238C72.0674 42.506 71.8514 41.948 71.4194 41.564C70.9934 41.174 70.4294 40.979 69.7274 40.979C69.0254 40.979 68.4584 41.174 68.0264 41.564C67.6004 41.948 67.3874 42.506 67.3874 43.238C67.3874 43.97 67.6034 44.528 68.0354 44.912C68.4674 45.29 69.0314 45.479 69.7274 45.479ZM69.7274 39.179C70.3214 39.179 70.8014 39.032 71.1674 38.738C71.5394 38.438 71.7254 37.985 71.7254 37.379C71.7254 36.773 71.5394 36.32 71.1674 36.02C70.8014 35.714 70.3214 35.561 69.7274 35.561C69.1334 35.561 68.6504 35.714 68.2784 36.02C67.9064 36.32 67.7204 36.773 67.7204 37.379C67.7204 37.985 67.9064 38.438 68.2784 38.738C68.6504 39.032 69.1334 39.179 69.7274 39.179ZM84.159 47.27C83.313 47.27 82.563 47.102 81.909 46.766C81.261 46.424 80.751 45.95 80.379 45.344C80.013 44.738 79.83 44.036 79.83 43.238C79.83 42.494 80.004 41.813 80.352 41.195C80.7 40.577 81.219 40.091 81.909 39.737L81.873 40.385C81.321 40.043 80.895 39.617 80.595 39.107C80.301 38.591 80.154 38.015 80.154 37.379C80.154 36.641 80.325 36.002 80.667 35.462C81.009 34.922 81.48 34.505 82.08 34.211C82.686 33.917 83.379 33.77 84.159 33.77C84.939 33.77 85.629 33.917 86.229 34.211C86.829 34.505 87.3 34.922 87.642 35.462C87.984 36.002 88.155 36.641 88.155 37.379C88.155 38.015 88.014 38.588 87.732 39.098C87.45 39.608 87.018 40.037 86.436 40.385L86.409 39.755C87.093 40.091 87.612 40.571 87.966 41.195C88.32 41.813 88.497 42.494 88.497 43.238C88.497 44.036 88.311 44.738 87.939 45.344C87.567 45.95 87.054 46.424 86.4 46.766C85.746 47.102 84.999 47.27 84.159 47.27ZM84.159 45.479C84.855 45.479 85.419 45.29 85.851 44.912C86.283 44.528 86.499 43.97 86.499 43.238C86.499 42.506 86.283 41.948 85.851 41.564C85.425 41.174 84.861 40.979 84.159 40.979C83.457 40.979 82.89 41.174 82.458 41.564C82.032 41.948 81.819 42.506 81.819 43.238C81.819 43.97 82.035 44.528 82.467 44.912C82.899 45.29 83.463 45.479 84.159 45.479ZM84.159 39.179C84.753 39.179 85.233 39.032 85.599 38.738C85.971 38.438 86.157 37.985 86.157 37.379C86.157 36.773 85.971 36.32 85.599 36.02C85.233 35.714 84.753 35.561 84.159 35.561C83.565 35.561 83.082 35.714 82.71 36.02C82.338 36.32 82.152 36.773 82.152 37.379C82.152 37.985 82.338 38.438 82.71 38.738C83.082 39.032 83.565 39.179 84.159 39.179ZM95.3561 47.27C94.4741 47.27 93.6941 47.078 93.0161 46.694C92.3381 46.304 91.8041 45.77 91.4141 45.092C91.0301 44.414 90.8381 43.634 90.8381 42.752V38.288C90.8381 37.406 91.0301 36.626 91.4141 35.948C91.8041 35.27 92.3381 34.739 93.0161 34.355C93.6941 33.965 94.4741 33.77 95.3561 33.77C96.2381 33.77 97.0181 33.965 97.6961 34.355C98.3741 34.739 98.9051 35.27 99.2891 35.948C99.6791 36.626 99.8741 37.406 99.8741 38.288V42.752C99.8741 43.634 99.6791 44.414 99.2891 45.092C98.9051 45.77 98.3741 46.304 97.6961 46.694C97.0181 47.078 96.2381 47.27 95.3561 47.27ZM95.3561 45.47C95.8361 45.47 96.2711 45.356 96.6611 45.128C97.0571 44.894 97.3721 44.582 97.6061 44.192C97.8401 43.796 97.9571 43.355 97.9571 42.869V38.153C97.9571 37.673 97.8401 37.238 97.6061 36.848C97.3721 36.452 97.0571 36.14 96.6611 35.912C96.2711 35.678 95.8361 35.561 95.3561 35.561C94.8761 35.561 94.4381 35.678 94.0421 35.912C93.6521 36.14 93.3401 36.452 93.1061 36.848C92.8721 37.238 92.7551 37.673 92.7551 38.153V42.869C92.7551 43.355 92.8721 43.796 93.1061 44.192C93.3401 44.582 93.6521 44.894 94.0421 45.128C94.4381 45.356 94.8761 45.47 95.3561 45.47ZM106.905 47.27C106.023 47.27 105.243 47.078 104.565 46.694C103.887 46.304 103.353 45.77 102.963 45.092C102.579 44.414 102.387 43.634 102.387 42.752V38.288C102.387 37.406 102.579 36.626 102.963 35.948C103.353 35.27 103.887 34.739 104.565 34.355C105.243 33.965 106.023 33.77 106.905 33.77C107.787 33.77 108.567 33.965 109.245 34.355C109.923 34.739 110.454 35.27 110.838 35.948C111.228 36.626 111.423 37.406 111.423 38.288V42.752C111.423 43.634 111.228 44.414 110.838 45.092C110.454 45.77 109.923 46.304 109.245 46.694C108.567 47.078 107.787 47.27 106.905 47.27ZM106.905 45.47C107.385 45.47 107.82 45.356 108.21 45.128C108.606 44.894 108.921 44.582 109.155 44.192C109.389 43.796 109.506 43.355 109.506 42.869V38.153C109.506 37.673 109.389 37.238 109.155 36.848C108.921 36.452 108.606 36.14 108.21 35.912C107.82 35.678 107.385 35.561 106.905 35.561C106.425 35.561 105.987 35.678 105.591 35.912C105.201 36.14 104.889 36.452 104.655 36.848C104.421 37.238 104.304 37.673 104.304 38.153V42.869C104.304 43.355 104.421 43.796 104.655 44.192C104.889 44.582 105.201 44.894 105.591 45.128C105.987 45.356 106.425 45.47 106.905 45.47ZM121.382 47.27C120.716 47.27 120.095 47.135 119.519 46.865C118.949 46.589 118.46 46.211 118.052 45.731C117.644 45.245 117.353 44.687 117.179 44.057L118.988 43.571C119.09 43.955 119.264 44.288 119.51 44.57C119.762 44.852 120.056 45.071 120.392 45.227C120.728 45.377 121.076 45.452 121.436 45.452C121.91 45.452 122.339 45.338 122.723 45.11C123.113 44.882 123.419 44.576 123.641 44.192C123.869 43.808 123.983 43.385 123.983 42.923C123.983 42.449 123.866 42.02 123.632 41.636C123.404 41.252 123.095 40.949 122.705 40.727C122.321 40.499 121.898 40.385 121.436 40.385C120.908 40.385 120.461 40.49 120.095 40.7C119.729 40.91 119.444 41.153 119.24 41.429L117.602 40.853L117.998 34.04H124.991V35.813H118.961L119.726 35.102L119.411 40.205L119.042 39.728C119.384 39.386 119.792 39.125 120.266 38.945C120.74 38.765 121.211 38.675 121.679 38.675C122.483 38.675 123.2 38.861 123.83 39.233C124.466 39.605 124.967 40.112 125.333 40.754C125.699 41.39 125.882 42.113 125.882 42.923C125.882 43.727 125.675 44.459 125.261 45.119C124.847 45.773 124.298 46.295 123.614 46.685C122.93 47.075 122.186 47.27 121.382 47.27ZM131.876 47.27C131.21 47.27 130.589 47.135 130.013 46.865C129.443 46.589 128.954 46.211 128.546 45.731C128.138 45.245 127.847 44.687 127.673 44.057L129.482 43.571C129.584 43.955 129.758 44.288 130.004 44.57C130.256 44.852 130.55 45.071 130.886 45.227C131.222 45.377 131.57 45.452 131.93 45.452C132.404 45.452 132.833 45.338 133.217 45.11C133.607 44.882 133.913 44.576 134.135 44.192C134.363 43.808 134.477 43.385 134.477 42.923C134.477 42.449 134.36 42.02 134.126 41.636C133.898 41.252 133.589 40.949 133.199 40.727C132.815 40.499 132.392 40.385 131.93 40.385C131.402 40.385 130.955 40.49 130.589 40.7C130.223 40.91 129.938 41.153 129.734 41.429L128.096 40.853L128.492 34.04H135.485V35.813H129.455L130.22 35.102L129.905 40.205L129.536 39.728C129.878 39.386 130.286 39.125 130.76 38.945C131.234 38.765 131.705 38.675 132.173 38.675C132.977 38.675 133.694 38.861 134.324 39.233C134.96 39.605 135.461 40.112 135.827 40.754C136.193 41.39 136.376 42.113 136.376 42.923C136.376 43.727 136.169 44.459 135.755 45.119C135.341 45.773 134.792 46.295 134.108 46.685C133.424 47.075 132.68 47.27 131.876 47.27ZM142.371 47.27C141.705 47.27 141.084 47.135 140.508 46.865C139.938 46.589 139.449 46.211 139.041 45.731C138.633 45.245 138.342 44.687 138.168 44.057L139.977 43.571C140.079 43.955 140.253 44.288 140.499 44.57C140.751 44.852 141.045 45.071 141.381 45.227C141.717 45.377 142.065 45.452 142.425 45.452C142.899 45.452 143.328 45.338 143.712 45.11C144.102 44.882 144.408 44.576 144.63 44.192C144.858 43.808 144.972 43.385 144.972 42.923C144.972 42.449 144.855 42.02 144.621 41.636C144.393 41.252 144.084 40.949 143.694 40.727C143.31 40.499 142.887 40.385 142.425 40.385C141.897 40.385 141.45 40.49 141.084 40.7C140.718 40.91 140.433 41.153 140.229 41.429L138.591 40.853L138.987 34.04H145.98V35.813H139.95L140.715 35.102L140.4 40.205L140.031 39.728C140.373 39.386 140.781 39.125 141.255 38.945C141.729 38.765 142.2 38.675 142.668 38.675C143.472 38.675 144.189 38.861 144.819 39.233C145.455 39.605 145.956 40.112 146.322 40.754C146.688 41.39 146.871 42.113 146.871 42.923C146.871 43.727 146.664 44.459 146.25 45.119C145.836 45.773 145.287 46.295 144.603 46.685C143.919 47.075 143.175 47.27 142.371 47.27ZM156.252 47.243C155.61 47.243 155.007 47.123 154.443 46.883C153.879 46.637 153.39 46.289 152.976 45.839C152.568 45.389 152.271 44.858 152.085 44.246L153.903 43.742C154.077 44.3 154.38 44.729 154.812 45.029C155.244 45.323 155.724 45.467 156.252 45.461C156.726 45.455 157.143 45.344 157.503 45.128C157.863 44.912 158.145 44.621 158.349 44.255C158.553 43.883 158.655 43.457 158.655 42.977C158.655 42.257 158.43 41.663 157.98 41.195C157.536 40.727 156.954 40.493 156.234 40.493C156.03 40.493 155.82 40.523 155.604 40.583C155.394 40.643 155.196 40.721 155.01 40.817L154.128 39.332L158.7 35.291L158.898 35.831H152.598V34.04H160.392V35.831L156.594 39.485L156.576 38.873C157.392 38.873 158.1 39.056 158.7 39.422C159.3 39.782 159.762 40.274 160.086 40.898C160.416 41.516 160.581 42.209 160.581 42.977C160.581 43.805 160.386 44.54 159.996 45.182C159.612 45.824 159.093 46.328 158.439 46.694C157.791 47.06 157.062 47.243 156.252 47.243ZM166.769 47.27C166.103 47.27 165.482 47.135 164.906 46.865C164.336 46.589 163.847 46.211 163.439 45.731C163.031 45.245 162.74 44.687 162.566 44.057L164.375 43.571C164.477 43.955 164.651 44.288 164.897 44.57C165.149 44.852 165.443 45.071 165.779 45.227C166.115 45.377 166.463 45.452 166.823 45.452C167.297 45.452 167.726 45.338 168.11 45.11C168.5 44.882 168.806 44.576 169.028 44.192C169.256 43.808 169.37 43.385 169.37 42.923C169.37 42.449 169.253 42.02 169.019 41.636C168.791 41.252 168.482 40.949 168.092 40.727C167.708 40.499 167.285 40.385 166.823 40.385C166.295 40.385 165.848 40.49 165.482 40.7C165.116 40.91 164.831 41.153 164.627 41.429L162.989 40.853L163.385 34.04H170.378V35.813H164.348L165.113 35.102L164.798 40.205L164.429 39.728C164.771 39.386 165.179 39.125 165.653 38.945C166.127 38.765 166.598 38.675 167.066 38.675C167.87 38.675 168.587 38.861 169.217 39.233C169.853 39.605 170.354 40.112 170.72 40.754C171.086 41.39 171.269 42.113 171.269 42.923C171.269 43.727 171.062 44.459 170.648 45.119C170.234 45.773 169.685 46.295 169.001 46.685C168.317 47.075 167.573 47.27 166.769 47.27ZM180.651 47.243C180.009 47.243 179.406 47.123 178.842 46.883C178.278 46.637 177.789 46.289 177.375 45.839C176.967 45.389 176.67 44.858 176.484 44.246L178.302 43.742C178.476 44.3 178.779 44.729 179.211 45.029C179.643 45.323 180.123 45.467 180.651 45.461C181.125 45.455 181.542 45.344 181.902 45.128C182.262 44.912 182.544 44.621 182.748 44.255C182.952 43.883 183.054 43.457 183.054 42.977C183.054 42.257 182.829 41.663 182.379 41.195C181.935 40.727 181.353 40.493 180.633 40.493C180.429 40.493 180.219 40.523 180.003 40.583C179.793 40.643 179.595 40.721 179.409 40.817L178.527 39.332L183.099 35.291L183.297 35.831H176.997V34.04H184.791V35.831L180.993 39.485L180.975 38.873C181.791 38.873 182.499 39.056 183.099 39.422C183.699 39.782 184.161 40.274 184.485 40.898C184.815 41.516 184.98 42.209 184.98 42.977C184.98 43.805 184.785 44.54 184.395 45.182C184.011 45.824 183.492 46.328 182.838 46.694C182.19 47.06 181.461 47.243 180.651 47.243ZM191.167 47.27C190.501 47.27 189.88 47.135 189.304 46.865C188.734 46.589 188.245 46.211 187.837 45.731C187.429 45.245 187.138 44.687 186.964 44.057L188.773 43.571C188.875 43.955 189.049 44.288 189.295 44.57C189.547 44.852 189.841 45.071 190.177 45.227C190.513 45.377 190.861 45.452 191.221 45.452C191.695 45.452 192.124 45.338 192.508 45.11C192.898 44.882 193.204 44.576 193.426 44.192C193.654 43.808 193.768 43.385 193.768 42.923C193.768 42.449 193.651 42.02 193.417 41.636C193.189 41.252 192.88 40.949 192.49 40.727C192.106 40.499 191.683 40.385 191.221 40.385C190.693 40.385 190.246 40.49 189.88 40.7C189.514 40.91 189.229 41.153 189.025 41.429L187.387 40.853L187.783 34.04H194.776V35.813H188.746L189.511 35.102L189.196 40.205L188.827 39.728C189.169 39.386 189.577 39.125 190.051 38.945C190.525 38.765 190.996 38.675 191.464 38.675C192.268 38.675 192.985 38.861 193.615 39.233C194.251 39.605 194.752 40.112 195.118 40.754C195.484 41.39 195.667 42.113 195.667 42.923C195.667 43.727 195.46 44.459 195.046 45.119C194.632 45.773 194.083 46.295 193.399 46.685C192.715 47.075 191.971 47.27 191.167 47.27Z" fill="#1E1B1B"/>
<circle cx="20" cy="28" r="20" fill="#61C4A1"/>
<path d="M27.76 31.9203C26.4636 30.8869 25.148 30.261 23.8675 31.2928L23.1029 31.9164C22.5435 32.3691 21.5034 34.4842 17.482 30.1728C13.4615 25.8668 15.854 25.1963 16.4143 24.7475L17.1831 24.1231C18.4568 23.089 17.9761 21.7871 17.0574 20.447L16.5031 19.6353C15.5802 18.2983 14.5753 17.4202 13.2982 18.4528L12.6081 19.0148C12.0437 19.398 10.4659 20.6437 10.0832 23.0101C9.62262 25.8496 11.0756 29.1011 14.4044 32.6688C17.7291 36.238 20.9842 38.0308 24.0677 37.9996C26.6303 37.9738 28.1779 36.6923 28.6619 36.2263L29.3545 35.6636C30.6282 34.6317 29.8368 33.5812 28.5396 32.5455L27.76 31.9203Z" fill="white"/>
</svg>
