<svg width="586" height="361" viewBox="0 0 586 361" fill="none" xmlns="http://www.w3.org/2000/svg">
<g filter="url(#filter0_d_2_1291)">
<rect x="130" y="102" width="326" height="100.038" rx="50.0192" fill="white" shape-rendering="crispEdges"/>
<rect x="124" y="96" width="338" height="112.038" rx="56.0192" stroke="#E1E1E1" stroke-opacity="0.43" stroke-width="12" shape-rendering="crispEdges"/>
</g>
<path d="M254.378 139.081C255.521 137.025 258.479 137.025 259.622 139.081L261.92 143.213C262.355 143.996 263.118 144.544 264 144.706L268.623 145.555C270.976 145.987 271.901 148.865 270.241 150.587L267.077 153.869C266.443 154.527 266.143 155.439 266.263 156.345L266.863 160.881C267.173 163.228 264.769 164.993 262.623 163.994L258.266 161.966C257.463 161.592 256.537 161.592 255.734 161.966L251.377 163.994C249.231 164.993 246.827 163.228 247.137 160.881L247.737 156.345C247.857 155.439 247.557 154.527 246.923 153.869L243.759 150.587C242.099 148.865 243.024 145.987 245.377 145.555L250 144.706C250.882 144.544 251.645 143.996 252.08 143.213L254.378 139.081Z" fill="#FFB648"/>
<path d="M292.378 139.081C293.521 137.025 296.479 137.025 297.622 139.081L299.92 143.213C300.355 143.996 301.118 144.544 302 144.706L306.623 145.555C308.976 145.987 309.901 148.865 308.241 150.587L305.077 153.869C304.443 154.527 304.143 155.439 304.263 156.345L304.863 160.881C305.173 163.228 302.769 164.993 300.623 163.994L296.266 161.966C295.463 161.592 294.537 161.592 293.734 161.966L289.377 163.994C287.231 164.993 284.827 163.228 285.137 160.881L285.737 156.345C285.857 155.439 285.557 154.527 284.923 153.869L281.759 150.587C280.099 148.865 281.024 145.987 283.377 145.555L288 144.706C288.882 144.544 289.645 143.996 290.08 143.213L292.378 139.081Z" fill="#FFB648"/>
<path d="M329.378 139.081C330.521 137.025 333.479 137.025 334.622 139.081L336.92 143.213C337.355 143.996 338.118 144.544 339 144.706L343.623 145.555C345.976 145.987 346.901 148.865 345.241 150.587L342.077 153.869C341.443 154.527 341.143 155.439 341.263 156.345L341.863 160.881C342.173 163.228 339.769 164.993 337.623 163.994L333.266 161.966C332.463 161.592 331.537 161.592 330.734 161.966L326.377 163.994C324.231 164.993 321.827 163.228 322.137 160.881L322.737 156.345C322.857 155.439 322.557 154.527 321.923 153.869L318.759 150.587C317.099 148.865 318.024 145.987 320.377 145.555L325 144.706C325.882 144.544 326.645 143.996 327.08 143.213L329.378 139.081Z" fill="#FFB648"/>
<path d="M367.378 139.081C368.521 137.025 371.479 137.025 372.622 139.081L374.92 143.213C375.355 143.996 376.118 144.544 377 144.706L381.623 145.555C383.976 145.987 384.901 148.865 383.241 150.587L380.077 153.869C379.443 154.527 379.143 155.439 379.263 156.345L379.863 160.881C380.173 163.228 377.769 164.993 375.623 163.994L371.266 161.966C370.463 161.592 369.537 161.592 368.734 161.966L364.377 163.994C362.231 164.993 359.827 163.228 360.137 160.881L360.737 156.345C360.857 155.439 360.557 154.527 359.923 153.869L356.759 150.587C355.099 148.865 356.024 145.987 358.377 145.555L363 144.706C363.882 144.544 364.645 143.996 365.08 143.213L367.378 139.081Z" fill="#FFB648"/>
<path d="M367.378 139.081C368.521 137.025 371.479 137.025 372.622 139.081L374.92 143.213C375.355 143.996 376.118 144.544 377 144.706L381.623 145.555C383.976 145.987 384.901 148.865 383.241 150.587L380.077 153.869C379.443 154.527 379.143 155.439 379.263 156.345L379.863 160.881C380.173 163.228 377.769 164.993 375.623 163.994L371.266 161.966C370.463 161.592 369.537 161.592 368.734 161.966L364.377 163.994C362.231 164.993 359.827 163.228 360.137 160.881L360.737 156.345C360.857 155.439 360.557 154.527 359.923 153.869L356.759 150.587C355.099 148.865 356.024 145.987 358.377 145.555L363 144.706C363.882 144.544 364.645 143.996 365.08 143.213L367.378 139.081Z" fill="#FFB648"/>
<path d="M404.378 139.081C405.521 137.025 408.479 137.025 409.622 139.081L411.92 143.213C412.355 143.996 413.118 144.544 414 144.706L418.623 145.555C420.976 145.987 421.901 148.865 420.241 150.587L417.077 153.869C416.443 154.527 416.143 155.439 416.263 156.345L416.863 160.881C417.173 163.228 414.769 164.993 412.623 163.994L408.266 161.966C407.463 161.592 406.537 161.592 405.734 161.966L401.377 163.994C399.231 164.993 396.827 163.228 397.137 160.881L397.737 156.345C397.857 155.439 397.557 154.527 396.923 153.869L393.759 150.587C392.099 148.865 393.024 145.987 395.377 145.555L400 144.706C400.882 144.544 401.645 143.996 402.08 143.213L404.378 139.081Z" fill="#FFB648"/>
<path opacity="0.7" d="M163.856 174.182C162.709 174.182 161.736 173.929 160.936 173.422C160.136 172.916 159.525 172.212 159.104 171.31C158.688 170.409 158.48 169.366 158.48 168.182C158.48 166.998 158.688 165.956 159.104 165.054C159.525 164.153 160.136 163.449 160.936 162.942C161.736 162.436 162.709 162.182 163.856 162.182C165.008 162.182 165.984 162.436 166.784 162.942C167.584 163.449 168.192 164.153 168.608 165.054C169.024 165.956 169.232 166.998 169.232 168.182C169.232 169.366 169.024 170.409 168.608 171.31C168.192 172.212 167.584 172.916 166.784 173.422C165.984 173.929 165.008 174.182 163.856 174.182ZM163.856 172.822C164.715 172.828 165.429 172.636 166 172.246C166.576 171.852 167.005 171.305 167.288 170.606C167.576 169.908 167.72 169.1 167.72 168.182C167.72 167.26 167.576 166.452 167.288 165.758C167.005 165.065 166.576 164.524 166 164.134C165.429 163.745 164.715 163.548 163.856 163.542C162.997 163.537 162.283 163.729 161.712 164.118C161.147 164.508 160.72 165.052 160.432 165.75C160.144 166.449 159.997 167.26 159.992 168.182C159.987 169.1 160.128 169.905 160.416 170.598C160.704 171.292 161.133 171.836 161.704 172.23C162.28 172.62 162.997 172.817 163.856 172.822ZM178.199 175.542V173.942H170.831V165.302H172.255V172.59H176.487V165.302H177.911V172.646H179.623V175.542H178.199ZM184.645 174.182C183.797 174.182 183.056 173.996 182.421 173.622C181.792 173.244 181.301 172.718 180.949 172.046C180.597 171.369 180.421 170.58 180.421 169.678C180.421 168.734 180.595 167.918 180.941 167.23C181.288 166.537 181.771 166.004 182.389 165.63C183.013 165.252 183.744 165.062 184.581 165.062C185.451 165.062 186.189 165.262 186.797 165.662C187.411 166.062 187.869 166.633 188.173 167.374C188.483 168.116 188.616 168.998 188.573 170.022H187.133V169.51C187.117 168.449 186.901 167.657 186.485 167.134C186.069 166.606 185.451 166.342 184.629 166.342C183.749 166.342 183.08 166.625 182.621 167.19C182.163 167.756 181.933 168.566 181.933 169.622C181.933 170.641 182.163 171.43 182.621 171.99C183.08 172.55 183.733 172.83 184.581 172.83C185.152 172.83 185.648 172.7 186.069 172.438C186.491 172.177 186.821 171.801 187.061 171.31L188.429 171.782C188.093 172.545 187.587 173.137 186.909 173.558C186.237 173.974 185.483 174.182 184.645 174.182ZM181.453 170.022V168.878H187.837V170.022H181.453ZM190.346 173.942V165.302H191.77V168.942H196.314V165.302H197.738V173.942H196.314V170.294H191.77V173.942H190.346ZM199.971 173.942L199.979 165.302H201.419V169.462L205.043 165.302H206.891L203.075 169.622L207.339 173.942H205.347L201.419 169.782V173.942H199.971ZM210.592 174.182C209.946 174.182 209.405 174.065 208.968 173.83C208.536 173.59 208.208 173.276 207.984 172.886C207.765 172.497 207.656 172.07 207.656 171.606C207.656 171.153 207.741 170.761 207.912 170.43C208.088 170.094 208.333 169.817 208.648 169.598C208.962 169.374 209.338 169.198 209.776 169.07C210.186 168.958 210.645 168.862 211.152 168.782C211.664 168.697 212.181 168.62 212.704 168.55C213.226 168.481 213.714 168.414 214.168 168.35L213.656 168.646C213.672 167.878 213.517 167.31 213.192 166.942C212.872 166.574 212.317 166.39 211.528 166.39C211.005 166.39 210.546 166.51 210.152 166.75C209.762 166.985 209.488 167.369 209.328 167.902L207.976 167.494C208.184 166.737 208.586 166.142 209.184 165.71C209.781 165.278 210.568 165.062 211.544 165.062C212.328 165.062 213 165.204 213.56 165.486C214.125 165.764 214.53 166.185 214.776 166.75C214.898 167.017 214.976 167.308 215.008 167.622C215.04 167.932 215.056 168.257 215.056 168.598V173.942H213.792V171.87L214.088 172.062C213.762 172.761 213.306 173.289 212.72 173.646C212.138 174.004 211.429 174.182 210.592 174.182ZM210.808 172.99C211.32 172.99 211.762 172.9 212.136 172.718C212.514 172.532 212.818 172.289 213.048 171.99C213.277 171.686 213.426 171.356 213.496 170.998C213.576 170.732 213.618 170.436 213.624 170.11C213.634 169.78 213.64 169.526 213.64 169.35L214.136 169.566C213.672 169.63 213.216 169.692 212.768 169.75C212.32 169.809 211.896 169.873 211.496 169.942C211.096 170.006 210.736 170.084 210.416 170.174C210.181 170.249 209.96 170.345 209.752 170.462C209.549 170.58 209.384 170.732 209.256 170.918C209.133 171.1 209.072 171.326 209.072 171.598C209.072 171.833 209.13 172.057 209.248 172.27C209.37 172.484 209.557 172.657 209.808 172.79C210.064 172.924 210.397 172.99 210.808 172.99Z" fill="black"/>
<path d="M175.296 134.911C176.408 134.911 177.412 135.179 178.308 135.715C179.204 136.243 179.916 136.971 180.444 137.899C180.972 138.827 181.236 139.887 181.236 141.079V146.575C181.236 147.839 180.972 148.947 180.444 149.899C179.924 150.843 179.196 151.579 178.26 152.107C177.332 152.635 176.26 152.899 175.044 152.899C174.132 152.899 173.276 152.727 172.476 152.383C171.676 152.039 170.98 151.527 170.388 150.847L172.236 149.131C172.564 149.555 172.976 149.895 173.472 150.151C173.968 150.407 174.492 150.535 175.044 150.535C175.756 150.535 176.384 150.363 176.928 150.019C177.48 149.675 177.908 149.227 178.212 148.675C178.516 148.123 178.668 147.531 178.668 146.899V143.731L179.172 144.283C178.676 144.931 178.06 145.443 177.324 145.819C176.588 146.195 175.8 146.383 174.96 146.383C173.88 146.383 172.92 146.135 172.08 145.639C171.24 145.143 170.576 144.467 170.088 143.611C169.6 142.755 169.356 141.787 169.356 140.707C169.356 139.627 169.628 138.651 170.172 137.779C170.716 136.907 171.436 136.211 172.332 135.691C173.228 135.171 174.216 134.911 175.296 134.911ZM175.296 137.335C174.672 137.335 174.1 137.487 173.58 137.791C173.068 138.087 172.66 138.491 172.356 139.003C172.052 139.515 171.9 140.083 171.9 140.707C171.9 141.331 172.052 141.903 172.356 142.423C172.66 142.935 173.068 143.343 173.58 143.647C174.092 143.951 174.66 144.103 175.284 144.103C175.908 144.103 176.476 143.951 176.988 143.647C177.5 143.343 177.908 142.935 178.212 142.423C178.516 141.903 178.668 141.331 178.668 140.707C178.668 140.091 178.516 139.527 178.212 139.015C177.916 138.503 177.512 138.095 177 137.791C176.488 137.487 175.92 137.335 175.296 137.335ZM188.234 135.259H190.766L186.158 152.539H183.626L188.234 135.259ZM198.793 134.911C199.905 134.911 200.909 135.179 201.805 135.715C202.702 136.243 203.414 136.971 203.942 137.899C204.47 138.827 204.734 139.887 204.734 141.079V146.575C204.734 147.839 204.47 148.947 203.942 149.899C203.422 150.843 202.694 151.579 201.757 152.107C200.829 152.635 199.757 152.899 198.541 152.899C197.629 152.899 196.773 152.727 195.973 152.383C195.173 152.039 194.477 151.527 193.885 150.847L195.733 149.131C196.061 149.555 196.473 149.895 196.969 150.151C197.465 150.407 197.989 150.535 198.541 150.535C199.253 150.535 199.882 150.363 200.425 150.019C200.977 149.675 201.405 149.227 201.709 148.675C202.013 148.123 202.166 147.531 202.166 146.899V143.731L202.67 144.283C202.173 144.931 201.557 145.443 200.821 145.819C200.086 146.195 199.298 146.383 198.457 146.383C197.377 146.383 196.417 146.135 195.577 145.639C194.737 145.143 194.073 144.467 193.585 143.611C193.097 142.755 192.853 141.787 192.853 140.707C192.853 139.627 193.125 138.651 193.669 137.779C194.213 136.907 194.933 136.211 195.829 135.691C196.725 135.171 197.713 134.911 198.793 134.911ZM198.793 137.335C198.169 137.335 197.597 137.487 197.077 137.791C196.565 138.087 196.157 138.491 195.853 139.003C195.549 139.515 195.397 140.083 195.397 140.707C195.397 141.331 195.549 141.903 195.853 142.423C196.157 142.935 196.565 143.343 197.077 143.647C197.589 143.951 198.158 144.103 198.782 144.103C199.406 144.103 199.974 143.951 200.485 143.647C200.997 143.343 201.405 142.935 201.709 142.423C202.013 141.903 202.166 141.331 202.166 140.707C202.166 140.091 202.013 139.527 201.709 139.015C201.413 138.503 201.009 138.095 200.498 137.791C199.986 137.487 199.418 137.335 198.793 137.335Z" fill="black"/>
<defs>
<filter id="filter0_d_2_1291" x="0" y="0" width="586" height="360.039" filterUnits="userSpaceOnUse" color-interpolation-filters="sRGB">
<feFlood flood-opacity="0" result="BackgroundImageFix"/>
<feColorMatrix in="SourceAlpha" type="matrix" values="0 0 0 0 0 0 0 0 0 0 0 0 0 0 0 0 0 0 127 0" result="hardAlpha"/>
<feOffset dy="28"/>
<feGaussianBlur stdDeviation="59"/>
<feComposite in2="hardAlpha" operator="out"/>
<feColorMatrix type="matrix" values="0 0 0 0 0.427425 0 0 0 0 0.42375 0 0 0 0 0.45 0 0 0 0.12 0"/>
<feBlend mode="normal" in2="BackgroundImageFix" result="effect1_dropShadow_2_1291"/>
<feBlend mode="normal" in="SourceGraphic" in2="effect1_dropShadow_2_1291" result="shape"/>
</filter>
</defs>
</svg>
